STARTFONT 2.1
FONT -Linotype-New Century Schoolbook-Medium-I-Normal--8-80-72-72-P-46-ISO8859-1
SIZE 8 72 72
FONTBOUNDINGBOX 9 11 -1 -3

STARTPROPERTIES 22
FONTNAME_REGISTRY "-"
FOUNDRY "Linotype"
FAMILY_NAME "New Century Schoolbook"
WEIGHT_NAME "Medium"
SLANT "I"
SETWIDTH_NAME "Normal"
ADD_STYLE_NAME ""
PIXEL_SIZE 8
POINT_SIZE 80
RESOLUTION_X 72
RESOLUTION_Y 72
SPACING "P"
CHARSET_REGISTRY "ISO8859"
CHARSET_ENCODING "1"
FULL_NAME "NewCenturySchlbk-Italic"
AVERAGE_WIDTH 46
WEIGHT 10
X_HEIGHT 4
QUAD_WIDTH 5
DEFAULT_CHAR 32
FONT_DESCENT 2
FONT_ASCENT 7
ENDPROPERTIES

CHARS 190

STARTCHAR space
ENCODING 32
SWIDTH 278 0
DWIDTH 2 0
BBX 1 1 0 0
BITMAP
00
ENDCHAR

STARTCHAR exclam
ENCODING 33
SWIDTH 333 0
DWIDTH 3 0
BBX 2 6 0 0
BITMAP
40
40
40
C0
00
80
ENDCHAR

STARTCHAR quotedbl
ENCODING 34
SWIDTH 400 0
DWIDTH 3 0
BBX 2 2 1 4
BITMAP
C0
C0
ENDCHAR

STARTCHAR numbersign
ENCODING 35
SWIDTH 556 0
DWIDTH 5 0
BBX 4 6 0 0
BITMAP
50
50
F0
F0
A0
A0
ENDCHAR

STARTCHAR dollar
ENCODING 36
SWIDTH 556 0
DWIDTH 4 0
BBX 4 8 0 -1
BITMAP
10
70
70
60
A0
F0
E0
40
ENDCHAR

STARTCHAR percent
ENCODING 37
SWIDTH 833 0
DWIDTH 7 0
BBX 6 6 0 0
BITMAP
68
B0
FC
14
34
58
ENDCHAR

STARTCHAR ampersand
ENCODING 38
SWIDTH 852 0
DWIDTH 7 0
BBX 6 6 0 0
BITMAP
30
30
6C
A8
94
F8
ENDCHAR

STARTCHAR quoteright
ENCODING 39
SWIDTH 204 0
DWIDTH 2 0
BBX 2 2 0 4
BITMAP
C0
80
ENDCHAR

STARTCHAR parenleft
ENCODING 40
SWIDTH 333 0
DWIDTH 3 0
BBX 3 7 0 -1
BITMAP
20
40
80
80
80
80
80
ENDCHAR

STARTCHAR parenright
ENCODING 41
SWIDTH 333 0
DWIDTH 3 0
BBX 3 7 0 -1
BITMAP
20
20
20
20
20
40
80
ENDCHAR

STARTCHAR asterisk
ENCODING 42
SWIDTH 500 0
DWIDTH 4 0
BBX 4 4 0 2
BITMAP
A0
B0
E0
60
ENDCHAR

STARTCHAR plus
ENCODING 43
SWIDTH 606 0
DWIDTH 5 0
BBX 5 5 0 0
BITMAP
20
20
F8
20
20
ENDCHAR

STARTCHAR comma
ENCODING 44
SWIDTH 278 0
DWIDTH 2 0
BBX 2 2 0 -1
BITMAP
80
C0
ENDCHAR

STARTCHAR minus
ENCODING 45
SWIDTH 606 0
DWIDTH 5 0
BBX 4 1 0 2
BITMAP
F0
ENDCHAR

STARTCHAR period
ENCODING 46
SWIDTH 278 0
DWIDTH 2 0
BBX 1 1 0 0
BITMAP
80
ENDCHAR

STARTCHAR slash
ENCODING 47
SWIDTH 606 0
DWIDTH 5 0
BBX 3 7 1 -1
BITMAP
20
40
40
40
C0
80
80
ENDCHAR

STARTCHAR zero
ENCODING 48
SWIDTH 556 0
DWIDTH 4 0
BBX 4 6 0 0
BITMAP
70
50
90
90
A0
E0
ENDCHAR

STARTCHAR one
ENCODING 49
SWIDTH 556 0
DWIDTH 4 0
BBX 3 6 0 0
BITMAP
20
60
20
40
40
E0
ENDCHAR

STARTCHAR two
ENCODING 50
SWIDTH 556 0
DWIDTH 4 0
BBX 4 6 0 0
BITMAP
30
50
50
20
50
F0
ENDCHAR

STARTCHAR three
ENCODING 51
SWIDTH 556 0
DWIDTH 4 0
BBX 4 6 0 0
BITMAP
70
50
20
90
90
E0
ENDCHAR

STARTCHAR four
ENCODING 52
SWIDTH 556 0
DWIDTH 4 0
BBX 4 6 0 0
BITMAP
10
30
70
60
F0
70
ENDCHAR

STARTCHAR five
ENCODING 53
SWIDTH 556 0
DWIDTH 4 0
BBX 4 6 0 0
BITMAP
70
40
60
10
90
E0
ENDCHAR

STARTCHAR six
ENCODING 54
SWIDTH 556 0
DWIDTH 4 0
BBX 4 6 0 0
BITMAP
30
40
E0
90
90
E0
ENDCHAR

STARTCHAR seven
ENCODING 55
SWIDTH 556 0
DWIDTH 4 0
BBX 4 6 1 0
BITMAP
F0
A0
20
40
40
80
ENDCHAR

STARTCHAR eight
ENCODING 56
SWIDTH 556 0
DWIDTH 4 0
BBX 4 6 0 0
BITMAP
70
50
70
D0
90
E0
ENDCHAR

STARTCHAR nine
ENCODING 57
SWIDTH 556 0
DWIDTH 4 0
BBX 4 6 0 0
BITMAP
70
50
90
70
20
E0
ENDCHAR

STARTCHAR colon
ENCODING 58
SWIDTH 278 0
DWIDTH 2 0
BBX 2 4 0 0
BITMAP
40
00
00
80
ENDCHAR

STARTCHAR semicolon
ENCODING 59
SWIDTH 278 0
DWIDTH 2 0
BBX 2 5 0 -1
BITMAP
40
00
00
80
C0
ENDCHAR

STARTCHAR less
ENCODING 60
SWIDTH 606 0
DWIDTH 5 0
BBX 4 4 0 0
BITMAP
30
E0
E0
30
ENDCHAR

STARTCHAR equal
ENCODING 61
SWIDTH 606 0
DWIDTH 5 0
BBX 4 3 0 1
BITMAP
F0
00
F0
ENDCHAR

STARTCHAR greater
ENCODING 62
SWIDTH 606 0
DWIDTH 5 0
BBX 4 4 0 0
BITMAP
C0
30
30
C0
ENDCHAR

STARTCHAR question
ENCODING 63
SWIDTH 444 0
DWIDTH 4 0
BBX 4 6 2 0
BITMAP
60
B0
20
60
40
40
ENDCHAR

STARTCHAR at
ENCODING 64
SWIDTH 747 0
DWIDTH 6 0
BBX 6 6 0 0
BITMAP
78
A4
D4
D4
FC
70
ENDCHAR

STARTCHAR A
ENCODING 65
SWIDTH 704 0
DWIDTH 6 0
BBX 6 6 0 0
BITMAP
10
18
28
78
48
CC
ENDCHAR

STARTCHAR B
ENCODING 66
SWIDTH 722 0
DWIDTH 6 0
BBX 6 6 0 0
BITMAP
78
24
38
48
48
F8
ENDCHAR

STARTCHAR C
ENCODING 67
SWIDTH 722 0
DWIDTH 6 0
BBX 5 6 0 0
BITMAP
38
48
80
80
88
70
ENDCHAR

STARTCHAR D
ENCODING 68
SWIDTH 778 0
DWIDTH 6 0
BBX 6 6 0 0
BITMAP
78
24
24
44
4C
F8
ENDCHAR

STARTCHAR E
ENCODING 69
SWIDTH 722 0
DWIDTH 6 0
BBX 6 6 0 0
BITMAP
7C
24
38
44
48
F8
ENDCHAR

STARTCHAR F
ENCODING 70
SWIDTH 667 0
DWIDTH 5 0
BBX 6 6 0 0
BITMAP
7C
24
20
40
78
E0
ENDCHAR

STARTCHAR G
ENCODING 71
SWIDTH 778 0
DWIDTH 6 0
BBX 6 6 0 0
BITMAP
3C
48
80
80
9C
78
ENDCHAR

STARTCHAR H
ENCODING 72
SWIDTH 833 0
DWIDTH 7 0
BBX 7 6 0 0
BITMAP
76
24
3C
44
48
FC
ENDCHAR

STARTCHAR I
ENCODING 73
SWIDTH 407 0
DWIDTH 3 0
BBX 4 6 0 0
BITMAP
70
20
40
40
40
E0
ENDCHAR

STARTCHAR J
ENCODING 74
SWIDTH 611 0
DWIDTH 5 0
BBX 5 6 0 0
BITMAP
18
10
10
10
F0
E0
ENDCHAR

STARTCHAR K
ENCODING 75
SWIDTH 741 0
DWIDTH 6 0
BBX 7 6 0 0
BITMAP
7E
2C
38
70
48
FC
ENDCHAR

STARTCHAR L
ENCODING 76
SWIDTH 667 0
DWIDTH 5 0
BBX 5 6 0 0
BITMAP
70
20
20
48
48
F8
ENDCHAR

STARTCHAR M
ENCODING 77
SWIDTH 944 0
DWIDTH 8 0
BBX 8 6 0 0
BITMAP
63
26
6A
6C
54
DE
ENDCHAR

STARTCHAR N
ENCODING 78
SWIDTH 815 0
DWIDTH 7 0
BBX 7 6 0 0
BITMAP
66
32
54
5C
4C
C8
ENDCHAR

STARTCHAR O
ENCODING 79
SWIDTH 778 0
DWIDTH 6 0
BBX 6 6 0 0
BITMAP
38
48
84
88
88
70
ENDCHAR

STARTCHAR P
ENCODING 80
SWIDTH 667 0
DWIDTH 5 0
BBX 6 6 0 0
BITMAP
78
24
38
40
40
E0
ENDCHAR

STARTCHAR Q
ENCODING 81
SWIDTH 778 0
DWIDTH 6 0
BBX 6 8 0 -2
BITMAP
38
44
84
E8
98
70
14
18
ENDCHAR

STARTCHAR R
ENCODING 82
SWIDTH 741 0
DWIDTH 6 0
BBX 6 6 0 0
BITMAP
7C
24
3C
48
4C
E8
ENDCHAR

STARTCHAR S
ENCODING 83
SWIDTH 667 0
DWIDTH 5 0
BBX 5 6 0 0
BITMAP
78
48
68
90
88
F0
ENDCHAR

STARTCHAR T
ENCODING 84
SWIDTH 685 0
DWIDTH 5 0
BBX 5 6 0 0
BITMAP
F8
A8
A8
20
40
E0
ENDCHAR

STARTCHAR U
ENCODING 85
SWIDTH 815 0
DWIDTH 7 0
BBX 6 6 1 0
BITMAP
EC
44
88
88
88
F0
ENDCHAR

STARTCHAR V
ENCODING 86
SWIDTH 704 0
DWIDTH 6 0
BBX 6 6 0 0
BITMAP
CC
48
48
50
50
20
ENDCHAR

STARTCHAR W
ENCODING 87
SWIDTH 926 0
DWIDTH 7 0
BBX 7 6 0 0
BITMAP
DE
52
5C
6C
68
48
ENDCHAR

STARTCHAR X
ENCODING 88
SWIDTH 704 0
DWIDTH 6 0
BBX 7 6 0 0
BITMAP
7E
2C
18
30
48
DC
ENDCHAR

STARTCHAR Y
ENCODING 89
SWIDTH 685 0
DWIDTH 5 0
BBX 6 6 0 0
BITMAP
EC
58
30
20
40
E0
ENDCHAR

STARTCHAR Z
ENCODING 90
SWIDTH 667 0
DWIDTH 5 0
BBX 6 6 0 0
BITMAP
7C
48
50
28
48
F8
ENDCHAR

STARTCHAR bracketleft
ENCODING 91
SWIDTH 333 0
DWIDTH 3 0
BBX 4 7 0 -1
BITMAP
70
40
40
40
80
80
C0
ENDCHAR

STARTCHAR backslash
ENCODING 92
SWIDTH 606 0
DWIDTH 5 0
BBX 4 6 1 0
BITMAP
80
C0
40
60
20
30
ENDCHAR

STARTCHAR bracketright
ENCODING 93
SWIDTH 333 0
DWIDTH 3 0
BBX 4 7 0 -1
BITMAP
30
20
20
20
60
40
C0
ENDCHAR

STARTCHAR asciicircum
ENCODING 94
SWIDTH 606 0
DWIDTH 5 0
BBX 4 3 0 3
BITMAP
60
60
90
ENDCHAR

STARTCHAR underscore
ENCODING 95
SWIDTH 500 0
DWIDTH 4 0
BBX 4 1 0 -1
BITMAP
F0
ENDCHAR

STARTCHAR quoteleft
ENCODING 96
SWIDTH 204 0
DWIDTH 2 0
BBX 2 2 0 4
BITMAP
C0
80
ENDCHAR

STARTCHAR a
ENCODING 97
SWIDTH 574 0
DWIDTH 5 0
BBX 4 4 0 0
BITMAP
70
A0
B0
F0
ENDCHAR

STARTCHAR b
ENCODING 98
SWIDTH 556 0
DWIDTH 4 0
BBX 4 7 0 0
BITMAP
40
40
40
60
90
A0
E0
ENDCHAR

STARTCHAR c
ENCODING 99
SWIDTH 444 0
DWIDTH 4 0
BBX 3 4 0 0
BITMAP
60
80
80
E0
ENDCHAR

STARTCHAR d
ENCODING 100
SWIDTH 611 0
DWIDTH 5 0
BBX 5 7 0 0
BITMAP
18
10
10
70
A0
A8
D0
ENDCHAR

STARTCHAR e
ENCODING 101
SWIDTH 444 0
DWIDTH 4 0
BBX 3 4 0 0
BITMAP
60
E0
A0
E0
ENDCHAR

STARTCHAR f
ENCODING 102
SWIDTH 333 0
DWIDTH 3 0
BBX 4 9 0 -2
BITMAP
30
20
20
60
40
40
40
C0
80
ENDCHAR

STARTCHAR g
ENCODING 103
SWIDTH 537 0
DWIDTH 4 0
BBX 5 6 0 -2
BITMAP
78
50
70
70
90
E0
ENDCHAR

STARTCHAR h
ENCODING 104
SWIDTH 611 0
DWIDTH 5 0
BBX 5 7 0 0
BITMAP
60
40
40
70
50
98
B0
ENDCHAR

STARTCHAR i
ENCODING 105
SWIDTH 333 0
DWIDTH 3 0
BBX 2 7 0 0
BITMAP
40
00
00
C0
80
C0
C0
ENDCHAR

STARTCHAR j
ENCODING 106
SWIDTH 315 0
DWIDTH 3 0
BBX 4 9 0 -2
BITMAP
10
00
00
30
20
20
20
60
C0
ENDCHAR

STARTCHAR k
ENCODING 107
SWIDTH 556 0
DWIDTH 4 0
BBX 4 7 0 0
BITMAP
60
60
40
70
60
F0
B0
ENDCHAR

STARTCHAR l
ENCODING 108
SWIDTH 333 0
DWIDTH 3 0
BBX 2 7 0 0
BITMAP
40
40
40
40
80
C0
C0
ENDCHAR

STARTCHAR m
ENCODING 109
SWIDTH 889 0
DWIDTH 7 0
BBX 7 4 0 0
BITMAP
FC
54
D6
A4
ENDCHAR

STARTCHAR n
ENCODING 110
SWIDTH 611 0
DWIDTH 5 0
BBX 5 4 0 0
BITMAP
F0
50
D8
B0
ENDCHAR

STARTCHAR o
ENCODING 111
SWIDTH 500 0
DWIDTH 4 0
BBX 4 4 0 0
BITMAP
60
90
A0
E0
ENDCHAR

STARTCHAR p
ENCODING 112
SWIDTH 574 0
DWIDTH 5 0
BBX 5 6 0 -2
BITMAP
78
48
48
70
40
C0
ENDCHAR

STARTCHAR q
ENCODING 113
SWIDTH 556 0
DWIDTH 4 0
BBX 4 6 0 -2
BITMAP
70
90
A0
E0
20
60
ENDCHAR

STARTCHAR r
ENCODING 114
SWIDTH 444 0
DWIDTH 4 0
BBX 3 4 0 0
BITMAP
E0
40
C0
80
ENDCHAR

STARTCHAR s
ENCODING 115
SWIDTH 444 0
DWIDTH 4 0
BBX 3 4 0 0
BITMAP
60
40
60
E0
ENDCHAR

STARTCHAR t
ENCODING 116
SWIDTH 352 0
DWIDTH 3 0
BBX 2 5 0 0
BITMAP
40
C0
80
C0
C0
ENDCHAR

STARTCHAR u
ENCODING 117
SWIDTH 611 0
DWIDTH 5 0
BBX 4 4 0 0
BITMAP
D0
A0
B0
F0
ENDCHAR

STARTCHAR v
ENCODING 118
SWIDTH 519 0
DWIDTH 4 0
BBX 3 4 0 0
BITMAP
E0
A0
A0
C0
ENDCHAR

STARTCHAR w
ENCODING 119
SWIDTH 778 0
DWIDTH 6 0
BBX 5 4 0 0
BITMAP
D8
A8
A8
F0
ENDCHAR

STARTCHAR x
ENCODING 120
SWIDTH 500 0
DWIDTH 4 0
BBX 4 4 0 0
BITMAP
70
A0
60
F0
ENDCHAR

STARTCHAR y
ENCODING 121
SWIDTH 500 0
DWIDTH 4 0
BBX 4 6 0 -2
BITMAP
50
B0
30
20
20
C0
ENDCHAR

STARTCHAR z
ENCODING 122
SWIDTH 463 0
DWIDTH 4 0
BBX 5 4 1 0
BITMAP
38
70
68
B0
ENDCHAR

STARTCHAR braceleft
ENCODING 123
SWIDTH 333 0
DWIDTH 3 0
BBX 3 7 0 -1
BITMAP
60
40
40
80
80
80
80
ENDCHAR

STARTCHAR bar
ENCODING 124
SWIDTH 606 0
DWIDTH 5 0
BBX 1 6 2 0
BITMAP
80
80
80
80
80
80
ENDCHAR

STARTCHAR braceright
ENCODING 125
SWIDTH 333 0
DWIDTH 3 0
BBX 3 7 0 -1
BITMAP
20
20
20
20
40
40
80
ENDCHAR

STARTCHAR asciitilde
ENCODING 126
SWIDTH 606 0
DWIDTH 5 0
BBX 4 2 0 1
BITMAP
D0
B0
ENDCHAR

STARTCHAR exclamdown
ENCODING 161
SWIDTH 333 0
DWIDTH 3 0
BBX 2 6 0 -2
BITMAP
40
00
40
80
80
80
ENDCHAR

STARTCHAR cent
ENCODING 162
SWIDTH 556 0
DWIDTH 4 0
BBX 4 6 0 -1
BITMAP
10
60
A0
E0
E0
80
ENDCHAR

STARTCHAR sterling
ENCODING 163
SWIDTH 556 0
DWIDTH 4 0
BBX 4 6 0 0
BITMAP
30
50
E0
40
D0
F0
ENDCHAR

STARTCHAR currency
ENCODING 164
SWIDTH 556 0
DWIDTH 5 0
BBX 4 4 0 1
BITMAP
F0
90
90
F0
ENDCHAR

STARTCHAR yen
ENCODING 165
SWIDTH 556 0
DWIDTH 4 0
BBX 5 6 0 0
BITMAP
D8
50
E0
E0
40
E0
ENDCHAR

STARTCHAR brokenbar
ENCODING 166
SWIDTH 606 0
DWIDTH 5 0
BBX 1 6 2 0
BITMAP
80
80
80
00
80
80
ENDCHAR

STARTCHAR section
ENCODING 167
SWIDTH 500 0
DWIDTH 4 0
BBX 4 8 0 -2
BITMAP
30
50
E0
90
60
20
E0
C0
ENDCHAR

STARTCHAR dieresis
ENCODING 168
SWIDTH 333 0
DWIDTH 3 0
BBX 3 1 0 4
BITMAP
A0
ENDCHAR

STARTCHAR copyright
ENCODING 169
SWIDTH 747 0
DWIDTH 6 0
BBX 6 6 0 0
BITMAP
78
DC
A4
A4
DC
78
ENDCHAR

STARTCHAR ordfeminine
ENCODING 170
SWIDTH 422 0
DWIDTH 3 0
BBX 3 3 1 3
BITMAP
E0
E0
C0
ENDCHAR

STARTCHAR guillemotleft
ENCODING 171
SWIDTH 426 0
DWIDTH 3 0
BBX 4 3 0 1
BITMAP
50
A0
A0
ENDCHAR

STARTCHAR logicalnot
ENCODING 172
SWIDTH 606 0
DWIDTH 5 0
BBX 4 3 0 0
BITMAP
F0
10
10
ENDCHAR

STARTCHAR hyphen
ENCODING 173
SWIDTH 333 0
DWIDTH 3 0
BBX 2 1 0 2
BITMAP
C0
ENDCHAR

STARTCHAR registered
ENCODING 174
SWIDTH 747 0
DWIDTH 6 0
BBX 6 6 0 0
BITMAP
78
FC
F4
D4
DC
78
ENDCHAR

STARTCHAR macron
ENCODING 175
SWIDTH 333 0
DWIDTH 3 0
BBX 3 1 0 4
BITMAP
E0
ENDCHAR

STARTCHAR degree
ENCODING 176
SWIDTH 400 0
DWIDTH 5 0
BBX 3 3 1 3
BITMAP
E0
A0
E0
ENDCHAR

STARTCHAR plusminus
ENCODING 177
SWIDTH 606 0
DWIDTH 5 0
BBX 5 6 0 0
BITMAP
20
20
F8
20
20
F8
ENDCHAR

STARTCHAR twosuperior
ENCODING 178
SWIDTH 333 0
DWIDTH 3 0
BBX 3 4 -1 2
BITMAP
60
60
A0
C0
ENDCHAR

STARTCHAR threesuperior
ENCODING 179
SWIDTH 333 0
DWIDTH 3 0
BBX 3 4 -1 2
BITMAP
40
60
C0
C0
ENDCHAR

STARTCHAR acute
ENCODING 180
SWIDTH 333 0
DWIDTH 3 0
BBX 2 1 1 5
BITMAP
C0
ENDCHAR

STARTCHAR mu
ENCODING 181
SWIDTH 611 0
DWIDTH 5 0
BBX 4 6 0 -2
BITMAP
A0
A0
A0
F0
80
80
ENDCHAR

STARTCHAR paragraph
ENCODING 182
SWIDTH 650 0
DWIDTH 5 0
BBX 4 8 1 -2
BITMAP
70
B0
A0
E0
60
60
C0
E0
ENDCHAR

STARTCHAR periodcentered
ENCODING 183
SWIDTH 278 0
DWIDTH 4 0
BBX 1 1 2 2
BITMAP
80
ENDCHAR

STARTCHAR cedilla
ENCODING 184
SWIDTH 333 0
DWIDTH 3 0
BBX 2 3 0 -2
BITMAP
40
40
C0
ENDCHAR

STARTCHAR onesuperior
ENCODING 185
SWIDTH 333 0
DWIDTH 3 0
BBX 2 4 -1 2
BITMAP
40
40
40
C0
ENDCHAR

STARTCHAR ordmasculine
ENCODING 186
SWIDTH 372 0
DWIDTH 3 0
BBX 2 3 1 3
BITMAP
C0
C0
C0
ENDCHAR

STARTCHAR guillemotright
ENCODING 187
SWIDTH 426 0
DWIDTH 3 0
BBX 3 3 0 1
BITMAP
60
60
E0
ENDCHAR

STARTCHAR onequarter
ENCODING 188
SWIDTH 834 0
DWIDTH 7 0
BBX 7 6 0 0
BITMAP
58
50
72
E4
64
4E
ENDCHAR

STARTCHAR onehalf
ENCODING 189
SWIDTH 834 0
DWIDTH 7 0
BBX 6 6 0 0
BITMAP
58
50
7C
EC
64
58
ENDCHAR

STARTCHAR threequarters
ENCODING 190
SWIDTH 834 0
DWIDTH 7 0
BBX 7 6 0 0
BITMAP
58
70
F2
E4
64
4E
ENDCHAR

STARTCHAR questiondown
ENCODING 191
SWIDTH 444 0
DWIDTH 4 0
BBX 3 7 0 -2
BITMAP
20
00
40
40
C0
C0
C0
ENDCHAR

STARTCHAR Agrave
ENCODING 192
SWIDTH 704 0
DWIDTH 6 0
BBX 6 7 0 0
BITMAP
18
10
18
28
78
48
CC
ENDCHAR

STARTCHAR Aacute
ENCODING 193
SWIDTH 704 0
DWIDTH 6 0
BBX 6 7 0 0
BITMAP
0C
10
18
28
78
48
CC
ENDCHAR

STARTCHAR Acircumflex
ENCODING 194
SWIDTH 704 0
DWIDTH 6 0
BBX 6 8 0 0
BITMAP
08
18
10
18
28
78
48
CC
ENDCHAR

STARTCHAR Atilde
ENCODING 195
SWIDTH 704 0
DWIDTH 6 0
BBX 6 7 0 0
BITMAP
1C
10
18
28
78
48
CC
ENDCHAR

STARTCHAR Adieresis
ENCODING 196
SWIDTH 704 0
DWIDTH 6 0
BBX 6 7 0 0
BITMAP
14
10
18
28
78
48
CC
ENDCHAR

STARTCHAR Aring
ENCODING 197
SWIDTH 704 0
DWIDTH 6 0
BBX 6 8 0 0
BITMAP
18
18
10
18
28
78
48
CC
ENDCHAR

STARTCHAR AE
ENCODING 198
SWIDTH 870 0
DWIDTH 7 0
BBX 8 6 0 0
BITMAP
1F
1A
2E
7C
52
FE
ENDCHAR

STARTCHAR Ccedilla
ENCODING 199
SWIDTH 722 0
DWIDTH 6 0
BBX 5 9 0 -3
BITMAP
38
48
80
80
88
70
20
20
60
ENDCHAR

STARTCHAR Egrave
ENCODING 200
SWIDTH 722 0
DWIDTH 6 0
BBX 6 7 0 0
BITMAP
10
7C
24
38
44
48
F8
ENDCHAR

STARTCHAR Eacute
ENCODING 201
SWIDTH 722 0
DWIDTH 6 0
BBX 6 7 0 0
BITMAP
10
7C
24
38
44
48
F8
ENDCHAR

STARTCHAR Ecircumflex
ENCODING 202
SWIDTH 722 0
DWIDTH 6 0
BBX 6 8 0 0
BITMAP
08
18
7C
24
38
44
48
F8
ENDCHAR

STARTCHAR Edieresis
ENCODING 203
SWIDTH 722 0
DWIDTH 6 0
BBX 6 7 0 0
BITMAP
28
7C
24
38
44
48
F8
ENDCHAR

STARTCHAR Igrave
ENCODING 204
SWIDTH 407 0
DWIDTH 3 0
BBX 4 7 0 0
BITMAP
20
70
20
40
40
40
E0
ENDCHAR

STARTCHAR Iacute
ENCODING 205
SWIDTH 407 0
DWIDTH 3 0
BBX 4 7 0 0
BITMAP
20
70
20
40
40
40
E0
ENDCHAR

STARTCHAR Icircumflex
ENCODING 206
SWIDTH 407 0
DWIDTH 3 0
BBX 4 8 0 0
BITMAP
20
60
70
20
40
40
40
E0
ENDCHAR

STARTCHAR Idieresis
ENCODING 207
SWIDTH 407 0
DWIDTH 3 0
BBX 4 7 0 0
BITMAP
50
70
20
40
40
40
E0
ENDCHAR

STARTCHAR Eth
ENCODING 208
SWIDTH 778 0
DWIDTH 6 0
BBX 6 6 0 0
BITMAP
78
24
74
44
4C
F8
ENDCHAR

STARTCHAR Ntilde
ENCODING 209
SWIDTH 815 0
DWIDTH 7 0
BBX 7 7 0 0
BITMAP
1C
66
32
54
5C
4C
C8
ENDCHAR

STARTCHAR Ograve
ENCODING 210
SWIDTH 778 0
DWIDTH 6 0
BBX 6 7 0 0
BITMAP
20
38
48
84
88
88
70
ENDCHAR

STARTCHAR Oacute
ENCODING 211
SWIDTH 778 0
DWIDTH 6 0
BBX 6 7 0 0
BITMAP
10
38
48
84
88
88
70
ENDCHAR

STARTCHAR Ocircumflex
ENCODING 212
SWIDTH 778 0
DWIDTH 6 0
BBX 6 8 0 0
BITMAP
10
30
38
48
84
88
88
70
ENDCHAR

STARTCHAR Otilde
ENCODING 213
SWIDTH 778 0
DWIDTH 6 0
BBX 6 7 0 0
BITMAP
38
38
48
84
88
88
70
ENDCHAR

STARTCHAR Odieresis
ENCODING 214
SWIDTH 778 0
DWIDTH 6 0
BBX 6 7 0 0
BITMAP
28
38
48
84
88
88
70
ENDCHAR

STARTCHAR multiply
ENCODING 215
SWIDTH 606 0
DWIDTH 5 0
BBX 3 3 1 1
BITMAP
A0
40
A0
ENDCHAR

STARTCHAR Oslash
ENCODING 216
SWIDTH 778 0
DWIDTH 6 0
BBX 6 7 0 0
BITMAP
04
38
58
B4
A8
C8
F0
ENDCHAR

STARTCHAR Ugrave
ENCODING 217
SWIDTH 815 0
DWIDTH 7 0
BBX 6 7 1 0
BITMAP
30
EC
44
88
88
88
F0
ENDCHAR

STARTCHAR Uacute
ENCODING 218
SWIDTH 815 0
DWIDTH 7 0
BBX 6 7 1 0
BITMAP
10
EC
44
88
88
88
F0
ENDCHAR

STARTCHAR Ucircumflex
ENCODING 219
SWIDTH 815 0
DWIDTH 7 0
BBX 6 8 1 0
BITMAP
10
30
EC
44
88
88
88
F0
ENDCHAR

STARTCHAR Udieresis
ENCODING 220
SWIDTH 815 0
DWIDTH 7 0
BBX 6 7 1 0
BITMAP
28
EC
44
88
88
88
F0
ENDCHAR

STARTCHAR Yacute
ENCODING 221
SWIDTH 685 0
DWIDTH 5 0
BBX 6 7 0 0
BITMAP
10
EC
58
30
20
40
E0
ENDCHAR

STARTCHAR Thorn
ENCODING 222
SWIDTH 667 0
DWIDTH 5 0
BBX 6 6 0 0
BITMAP
70
38
24
48
78
E0
ENDCHAR

STARTCHAR germandbls
ENCODING 223
SWIDTH 556 0
DWIDTH 4 0
BBX 5 9 0 -2
BITMAP
38
28
30
50
50
70
70
80
80
ENDCHAR

STARTCHAR agrave
ENCODING 224
SWIDTH 574 0
DWIDTH 5 0
BBX 4 5 0 0
BITMAP
30
70
A0
B0
F0
ENDCHAR

STARTCHAR aacute
ENCODING 225
SWIDTH 574 0
DWIDTH 5 0
BBX 4 5 0 0
BITMAP
30
70
A0
B0
F0
ENDCHAR

STARTCHAR acircumflex
ENCODING 226
SWIDTH 574 0
DWIDTH 5 0
BBX 4 6 0 0
BITMAP
20
60
70
A0
B0
F0
ENDCHAR

STARTCHAR atilde
ENCODING 227
SWIDTH 574 0
DWIDTH 5 0
BBX 4 5 0 0
BITMAP
70
70
A0
B0
F0
ENDCHAR

STARTCHAR adieresis
ENCODING 228
SWIDTH 574 0
DWIDTH 5 0
BBX 4 5 0 0
BITMAP
50
70
A0
B0
F0
ENDCHAR

STARTCHAR aring
ENCODING 229
SWIDTH 574 0
DWIDTH 5 0
BBX 4 6 0 0
BITMAP
30
30
70
A0
B0
F0
ENDCHAR

STARTCHAR ae
ENCODING 230
SWIDTH 722 0
DWIDTH 6 0
BBX 5 4 0 0
BITMAP
68
F8
A8
D8
ENDCHAR

STARTCHAR ccedilla
ENCODING 231
SWIDTH 444 0
DWIDTH 4 0
BBX 3 7 0 -3
BITMAP
60
80
80
E0
40
40
C0
ENDCHAR

STARTCHAR egrave
ENCODING 232
SWIDTH 444 0
DWIDTH 4 0
BBX 3 5 0 0
BITMAP
60
60
E0
A0
E0
ENDCHAR

STARTCHAR eacute
ENCODING 233
SWIDTH 444 0
DWIDTH 4 0
BBX 4 5 0 0
BITMAP
30
60
E0
A0
E0
ENDCHAR

STARTCHAR ecircumflex
ENCODING 234
SWIDTH 444 0
DWIDTH 4 0
BBX 3 6 0 0
BITMAP
20
60
60
E0
A0
E0
ENDCHAR

STARTCHAR edieresis
ENCODING 235
SWIDTH 444 0
DWIDTH 4 0
BBX 4 5 0 0
BITMAP
50
60
E0
A0
E0
ENDCHAR

STARTCHAR igrave
ENCODING 236
SWIDTH 333 0
DWIDTH 3 0
BBX 2 5 0 0
BITMAP
C0
C0
80
C0
C0
ENDCHAR

STARTCHAR iacute
ENCODING 237
SWIDTH 333 0
DWIDTH 3 0
BBX 3 5 0 0
BITMAP
60
C0
80
C0
C0
ENDCHAR

STARTCHAR icircumflex
ENCODING 238
SWIDTH 333 0
DWIDTH 3 0
BBX 2 6 0 0
BITMAP
40
C0
C0
80
C0
C0
ENDCHAR

STARTCHAR idieresis
ENCODING 239
SWIDTH 333 0
DWIDTH 3 0
BBX 3 5 0 0
BITMAP
A0
C0
80
C0
C0
ENDCHAR

STARTCHAR eth
ENCODING 240
SWIDTH 500 0
DWIDTH 4 0
BBX 4 6 0 0
BITMAP
E0
60
60
90
A0
E0
ENDCHAR

STARTCHAR ntilde
ENCODING 241
SWIDTH 611 0
DWIDTH 5 0
BBX 5 5 0 0
BITMAP
70
F0
50
D8
B0
ENDCHAR

STARTCHAR ograve
ENCODING 242
SWIDTH 500 0
DWIDTH 4 0
BBX 4 5 0 0
BITMAP
60
60
90
A0
E0
ENDCHAR

STARTCHAR oacute
ENCODING 243
SWIDTH 500 0
DWIDTH 4 0
BBX 4 5 0 0
BITMAP
30
60
90
A0
E0
ENDCHAR

STARTCHAR ocircumflex
ENCODING 244
SWIDTH 500 0
DWIDTH 4 0
BBX 4 6 0 0
BITMAP
20
60
60
90
A0
E0
ENDCHAR

STARTCHAR otilde
ENCODING 245
SWIDTH 500 0
DWIDTH 4 0
BBX 4 5 0 0
BITMAP
70
60
90
A0
E0
ENDCHAR

STARTCHAR odieresis
ENCODING 246
SWIDTH 500 0
DWIDTH 4 0
BBX 4 5 0 0
BITMAP
50
60
90
A0
E0
ENDCHAR

STARTCHAR divide
ENCODING 247
SWIDTH 606 0
DWIDTH 5 0
BBX 5 3 0 1
BITMAP
20
F8
20
ENDCHAR

STARTCHAR oslash
ENCODING 248
SWIDTH 500 0
DWIDTH 4 0
BBX 5 6 0 -1
BITMAP
18
70
B0
A0
E0
40
ENDCHAR

STARTCHAR ugrave
ENCODING 249
SWIDTH 611 0
DWIDTH 5 0
BBX 4 5 0 0
BITMAP
60
D0
A0
B0
F0
ENDCHAR

STARTCHAR uacute
ENCODING 250
SWIDTH 611 0
DWIDTH 5 0
BBX 4 5 0 0
BITMAP
30
D0
A0
B0
F0
ENDCHAR

STARTCHAR ucircumflex
ENCODING 251
SWIDTH 611 0
DWIDTH 5 0
BBX 4 6 0 0
BITMAP
20
60
D0
A0
B0
F0
ENDCHAR

STARTCHAR udieresis
ENCODING 252
SWIDTH 611 0
DWIDTH 5 0
BBX 4 5 0 0
BITMAP
50
D0
A0
B0
F0
ENDCHAR

STARTCHAR yacute
ENCODING 253
SWIDTH 500 0
DWIDTH 4 0
BBX 4 7 0 -2
BITMAP
30
50
B0
30
20
20
C0
ENDCHAR

STARTCHAR thorn
ENCODING 254
SWIDTH 574 0
DWIDTH 5 0
BBX 5 8 0 -2
BITMAP
20
20
38
28
48
70
40
C0
ENDCHAR

STARTCHAR ydieresis
ENCODING 255
SWIDTH 500 0
DWIDTH 4 0
BBX 5 7 0 -2
BITMAP
28
50
B0
30
20
20
C0
ENDCHAR
ENDFONT
